<svg width="81" height="3750" viewBox="0 0 81 3750" fill="none" xmlns="http://www.w3.org/2000/svg">
<rect width="69" height="69" rx="5" fill="#94A1E8"/>
<path d="M39.031 39.617L43.314 43.899L41.899 45.314L37.617 41.031C36.0237 42.3082 34.042 43.0029 32 43C27.032 43 23 38.968 23 34C23 29.032 27.032 25 32 25C36.968 25 41 29.032 41 34C41.0029 36.042 40.3082 38.0237 39.031 39.617ZM37.025 38.875C38.2941 37.5699 39.0029 35.8204 39 34C39 30.132 35.867 27 32 27C28.132 27 25 30.132 25 34C25 37.867 28.132 41 32 41C33.8204 41.0029 35.5699 40.2941 36.875 39.025L37.025 38.875Z" fill="white"/>
</svg>
