<svg width="161" height="21" viewBox="0 0 161 21" fill="none" xmlns="http://www.w3.org/2000/svg">
<path d="M8.086 20.26C6.682 20.26 5.32133 20.0607 4.004 19.662C2.704 19.2633 1.67267 18.7347 0.91 18.076L2.08 15.45C2.82533 16.0393 3.73533 16.5247 4.81 16.906C5.902 17.27 6.994 17.452 8.086 17.452C9.438 17.452 10.4433 17.2353 11.102 16.802C11.778 16.3687 12.116 15.7967 12.116 15.086C12.116 14.566 11.9253 14.1413 11.544 13.812C11.18 13.4653 10.712 13.1967 10.14 13.006C9.568 12.8153 8.788 12.5987 7.8 12.356C6.41333 12.0267 5.28667 11.6973 4.42 11.368C3.57067 11.0387 2.834 10.5273 2.21 9.834C1.60333 9.12333 1.3 8.17 1.3 6.974C1.3 5.96867 1.56867 5.05867 2.106 4.244C2.66067 3.412 3.484 2.75333 4.576 2.268C5.68533 1.78267 7.03733 1.54 8.632 1.54C9.74133 1.54 10.8333 1.67867 11.908 1.956C12.9827 2.23333 13.91 2.632 14.69 3.152L13.624 5.778C12.8267 5.31 11.9947 4.95467 11.128 4.712C10.2613 4.46933 9.42067 4.348 8.606 4.348C7.27133 4.348 6.27467 4.57333 5.616 5.024C4.97467 5.47467 4.654 6.07267 4.654 6.818C4.654 7.338 4.836 7.76267 5.2 8.092C5.58133 8.42133 6.058 8.68133 6.63 8.872C7.202 9.06267 7.982 9.27933 8.97 9.522C10.322 9.834 11.4313 10.1633 12.298 10.51C13.1647 10.8393 13.9013 11.3507 14.508 12.044C15.132 12.7373 15.444 13.6733 15.444 14.852C15.444 15.8573 15.1667 16.7673 14.612 17.582C14.0747 18.3967 13.2513 19.0467 12.142 19.532C11.0327 20.0173 9.68067 20.26 8.086 20.26ZM18.7956 1.8H26.7516C28.6929 1.8 30.4176 2.18133 31.9256 2.944C33.4336 3.68933 34.6036 4.75533 35.4356 6.142C36.2676 7.51133 36.6836 9.09733 36.6836 10.9C36.6836 12.7027 36.2676 14.2973 35.4356 15.684C34.6036 17.0533 33.4336 18.1193 31.9256 18.882C30.4176 19.6273 28.6929 20 26.7516 20H18.7956V1.8ZM26.5956 17.14C27.9302 17.14 29.1002 16.8887 30.1056 16.386C31.1282 15.866 31.9082 15.138 32.4456 14.202C33.0002 13.2487 33.2776 12.148 33.2776 10.9C33.2776 9.652 33.0002 8.56 32.4456 7.624C31.9082 6.67067 31.1282 5.94267 30.1056 5.44C29.1002 4.92 27.9302 4.66 26.5956 4.66H22.1756V17.14H26.5956ZM48.102 20.26C45.5887 20.26 43.63 19.558 42.226 18.154C40.822 16.7327 40.12 14.7047 40.12 12.07V1.8H43.5V11.94C43.5 15.5107 45.0427 17.296 48.128 17.296C51.196 17.296 52.73 15.5107 52.73 11.94V1.8H56.058V12.07C56.058 14.7047 55.356 16.7327 53.952 18.154C52.5654 19.558 50.6154 20.26 48.102 20.26ZM74.2432 12.382L71.3572 15.346V20H67.9772V1.8H71.3572V11.134L80.3532 1.8H84.1492L76.5052 9.938L84.6172 20H80.6652L74.2432 12.382ZM92.2372 20.182C90.8332 20.182 89.5679 19.8787 88.4412 19.272C87.3146 18.6653 86.4306 17.8247 85.7892 16.75C85.1652 15.658 84.8532 14.4273 84.8532 13.058C84.8532 11.6887 85.1652 10.4667 85.7892 9.392C86.4306 8.31733 87.3146 7.47667 88.4412 6.87C89.5679 6.26333 90.8332 5.96 92.2372 5.96C93.6586 5.96 94.9326 6.26333 96.0592 6.87C97.1859 7.47667 98.0612 8.31733 98.6852 9.392C99.3266 10.4667 99.6472 11.6887 99.6472 13.058C99.6472 14.4273 99.3266 15.658 98.6852 16.75C98.0612 17.8247 97.1859 18.6653 96.0592 19.272C94.9326 19.8787 93.6586 20.182 92.2372 20.182ZM92.2372 17.4C93.4332 17.4 94.4212 17.0013 95.2012 16.204C95.9812 15.4067 96.3712 14.358 96.3712 13.058C96.3712 11.758 95.9812 10.7093 95.2012 9.912C94.4212 9.11467 93.4332 8.716 92.2372 8.716C91.0412 8.716 90.0532 9.11467 89.2732 9.912C88.5106 10.7093 88.1292 11.758 88.1292 13.058C88.1292 14.358 88.5106 15.4067 89.2732 16.204C90.0532 17.0013 91.0412 17.4 92.2372 17.4ZM120.279 5.96C122.03 5.96 123.416 6.47133 124.439 7.494C125.462 8.49933 125.973 10.016 125.973 12.044V20H122.723V12.46C122.723 11.2467 122.454 10.3367 121.917 9.73C121.38 9.106 120.608 8.794 119.603 8.794C118.511 8.794 117.636 9.158 116.977 9.886C116.318 10.5967 115.989 11.6193 115.989 12.954V20H112.739V12.46C112.739 11.2467 112.47 10.3367 111.933 9.73C111.396 9.106 110.624 8.794 109.619 8.794C108.51 8.794 107.626 9.14933 106.967 9.86C106.326 10.5707 106.005 11.602 106.005 12.954V20H102.755V6.116H105.849V7.884C106.369 7.26 107.019 6.78333 107.799 6.454C108.579 6.12467 109.446 5.96 110.399 5.96C111.439 5.96 112.358 6.15933 113.155 6.558C113.97 6.93933 114.611 7.51133 115.079 8.274C115.651 7.546 116.388 6.98267 117.289 6.584C118.19 6.168 119.187 5.96 120.279 5.96ZM143.305 13.136C143.305 13.3613 143.288 13.682 143.253 14.098H132.359C132.55 15.1207 133.044 15.9353 133.841 16.542C134.656 17.1313 135.661 17.426 136.857 17.426C138.382 17.426 139.639 16.9233 140.627 15.918L142.369 17.92C141.745 18.6653 140.956 19.2287 140.003 19.61C139.05 19.9913 137.975 20.182 136.779 20.182C135.254 20.182 133.91 19.8787 132.749 19.272C131.588 18.6653 130.686 17.8247 130.045 16.75C129.421 15.658 129.109 14.4273 129.109 13.058C129.109 11.706 129.412 10.4927 130.019 9.418C130.643 8.326 131.501 7.47667 132.593 6.87C133.685 6.26333 134.916 5.96 136.285 5.96C137.637 5.96 138.842 6.26333 139.899 6.87C140.974 7.45933 141.806 8.3 142.395 9.392C143.002 10.4667 143.305 11.7147 143.305 13.136ZM136.285 8.56C135.245 8.56 134.361 8.872 133.633 9.496C132.922 10.1027 132.489 10.9173 132.333 11.94H140.211C140.072 10.9347 139.648 10.12 138.937 9.496C138.226 8.872 137.342 8.56 136.285 8.56ZM152.095 14.046L149.677 16.334V20H146.427V0.707999H149.677V12.356L156.411 6.116H160.311L154.513 11.94L160.857 20H156.905L152.095 14.046Z" fill="black"/>
</svg>
